<svg width="161" height="160" viewBox="0 0 161 160" fill="none" xmlns="http://www.w3.org/2000/svg">
<path d="M132.633 64.6483L149.768 46.9284C150.319 46.3729 150.567 45.5895 150.484 44.8203C150.374 44.0226 149.933 43.3389 149.286 42.94L103.072 15.3346C102.122 14.7648 100.91 14.9358 100.138 15.7477L83.0028 33.4676L65.8672 15.7619C65.0821 14.95 63.8837 14.7791 62.9195 15.3489L16.7196 42.9543C16.0446 43.3531 15.6176 44.0368 15.5212 44.8345C15.4248 45.5895 15.6589 46.3871 16.1961 46.9427L33.3317 64.6625L16.2099 82.3967C15.6727 82.9522 15.4248 83.7356 15.535 84.5048C15.6176 85.274 16.0584 85.972 16.7333 86.3566L34.3648 96.8973V119.859C34.3648 120.771 34.8331 121.597 35.577 122.053L81.7907 149.672C82.1626 149.915 82.5896 150 83.0028 150C83.4161 150 83.8431 149.9 84.215 149.672L130.415 122.053C131.159 121.597 131.627 120.771 131.627 119.859V96.8973L149.272 86.3566C149.92 85.9577 150.36 85.274 150.471 84.5048C150.567 83.7214 150.305 82.9522 149.754 82.3967L132.633 64.6483ZM124.313 64.3349L83.0028 89.0203L41.6791 64.3349L72.6581 45.8174L83.0028 39.6496L120.373 61.9561L124.313 64.3349ZM102.26 20.3628L144.079 45.3758L128.79 61.1869L126.283 59.6913L86.9561 36.1882L102.26 20.3628ZM63.746 20.3628L79.0495 36.1882L37.2024 61.1727L21.8988 45.3616L63.746 20.3628ZM37.2024 67.4829L79.022 92.4959L63.7322 108.307L38.0013 92.9232C37.9875 92.9232 37.9875 92.9232 37.9875 92.9232L21.8988 83.3083L37.2024 67.4829ZM39.2272 99.4898L62.9195 113.634C63.3052 113.877 63.7184 113.976 64.1316 113.976C64.1867 113.976 64.2143 113.919 64.2694 113.919C64.8342 113.905 65.4127 113.706 65.8535 113.25L80.5647 98.0369V142.792L39.2272 118.079V99.4898ZM126.751 118.079L85.4271 142.778V98.0369L100.111 113.25C100.538 113.691 101.103 113.877 101.681 113.919C101.736 113.919 101.778 113.976 101.819 113.976C102.246 113.976 102.659 113.877 103.031 113.634L126.723 99.4898V118.079H126.751ZM102.246 108.293L86.9561 92.4816L128.79 67.4687L144.079 83.2941L102.246 108.293Z" fill="#858584"/>
</svg>
