<svg width="20" height="20" viewBox="0 0 20 20" fill="none" xmlns="http://www.w3.org/2000/svg">
<g clip-path="url(#clip0_2217_11579)">
<path d="M19.004 0.78125L11.2001 6.57733L12.6432 3.15772L19.004 0.78125Z" fill="#E2761B" stroke="#E2761B" stroke-width="0.3125" stroke-linecap="round" stroke-linejoin="round"/>
<path d="M0.988159 0.78125L8.72934 6.63223L7.35679 3.15772L0.988159 0.78125Z" fill="#E4761B" stroke="#E4761B" stroke-width="0.3125" stroke-linecap="round" stroke-linejoin="round"/>
<path d="M16.196 14.2165L14.1176 17.4009L18.5646 18.6244L19.843 14.2871L16.196 14.2165Z" fill="#E4761B" stroke="#E4761B" stroke-width="0.3125" stroke-linecap="round" stroke-linejoin="round"/>
<path d="M0.164551 14.2871L1.43514 18.6244L5.8822 17.4009L3.80377 14.2165L0.164551 14.2871Z" fill="#E4761B" stroke="#E4761B" stroke-width="0.3125" stroke-linecap="round" stroke-linejoin="round"/>
<path d="M5.63131 8.83616L4.39209 10.7107L8.80778 10.9068L8.65091 6.16165L5.63131 8.83616Z" fill="#E4761B" stroke="#E4761B" stroke-width="0.3125" stroke-linecap="round" stroke-linejoin="round"/>
<path d="M14.3607 8.83617L11.3019 6.10676L11.2 10.9068L15.6078 10.7107L14.3607 8.83617Z" fill="#E4761B" stroke="#E4761B" stroke-width="0.3125" stroke-linecap="round" stroke-linejoin="round"/>
<path d="M5.8822 17.4009L8.53318 16.1067L6.24299 14.3185L5.8822 17.4009Z" fill="#E4761B" stroke="#E4761B" stroke-width="0.3125" stroke-linecap="round" stroke-linejoin="round"/>
<path d="M11.4587 16.1067L14.1176 17.4009L13.7489 14.3185L11.4587 16.1067Z" fill="#E4761B" stroke="#E4761B" stroke-width="0.3125" stroke-linecap="round" stroke-linejoin="round"/>
<path d="M14.1177 17.4008L11.4589 16.1067L11.6706 17.84L11.6471 18.5695L14.1177 17.4008Z" fill="#D7C1B3" stroke="#D7C1B3" stroke-width="0.3125" stroke-linecap="round" stroke-linejoin="round"/>
<path d="M5.88232 17.4009L8.35291 18.5695L8.33723 17.8401L8.53331 16.1068L5.88232 17.4009Z" fill="#D7C1B3" stroke="#D7C1B3" stroke-width="0.3125" stroke-linecap="round" stroke-linejoin="round"/>
<path d="M8.39219 13.1734L6.18042 12.5224L7.7412 11.8087L8.39219 13.1734Z" fill="#233447" stroke="#233447" stroke-width="0.3125" stroke-linecap="round" stroke-linejoin="round"/>
<path d="M11.6001 13.1734L12.2511 11.8087L13.8197 12.5224L11.6001 13.1734Z" fill="#233447" stroke="#233447" stroke-width="0.3125" stroke-linecap="round" stroke-linejoin="round"/>
<path d="M5.88239 17.4009L6.25886 14.2166L3.80396 14.2871L5.88239 17.4009Z" fill="#CD6116" stroke="#CD6116" stroke-width="0.3125" stroke-linecap="round" stroke-linejoin="round"/>
<path d="M13.7412 14.2166L14.1177 17.4009L16.1961 14.2871L13.7412 14.2166Z" fill="#CD6116" stroke="#CD6116" stroke-width="0.3125" stroke-linecap="round" stroke-linejoin="round"/>
<path d="M15.6079 10.7107L11.2001 10.9067L11.6079 13.1734L12.2589 11.8087L13.8275 12.5224L15.6079 10.7107Z" fill="#CD6116" stroke="#CD6116" stroke-width="0.3125" stroke-linecap="round" stroke-linejoin="round"/>
<path d="M6.18045 12.5224L7.74908 11.8087L8.39221 13.1734L8.8079 10.9067L4.39221 10.7107L6.18045 12.5224Z" fill="#CD6116" stroke="#CD6116" stroke-width="0.3125" stroke-linecap="round" stroke-linejoin="round"/>
<path d="M4.39221 10.7107L6.24319 14.3185L6.18045 12.5224L4.39221 10.7107Z" fill="#E4751F" stroke="#E4751F" stroke-width="0.3125" stroke-linecap="round" stroke-linejoin="round"/>
<path d="M13.8276 12.5224L13.7491 14.3185L15.608 10.7107L13.8276 12.5224Z" fill="#E4751F" stroke="#E4751F" stroke-width="0.3125" stroke-linecap="round" stroke-linejoin="round"/>
<path d="M8.80802 10.9067L8.39233 13.1734L8.90998 15.8479L9.02763 12.3263L8.80802 10.9067Z" fill="#E4751F" stroke="#E4751F" stroke-width="0.3125" stroke-linecap="round" stroke-linejoin="round"/>
<path d="M11.2002 10.9067L10.9884 12.3185L11.0825 15.8479L11.608 13.1734L11.2002 10.9067Z" fill="#E4751F" stroke="#E4751F" stroke-width="0.3125" stroke-linecap="round" stroke-linejoin="round"/>
<path d="M11.6079 13.1734L11.0824 15.8479L11.4589 16.1067L13.7491 14.3185L13.8275 12.5224L11.6079 13.1734Z" fill="#F6851B" stroke="#F6851B" stroke-width="0.3125" stroke-linecap="round" stroke-linejoin="round"/>
<path d="M6.18042 12.5224L6.24317 14.3185L8.53336 16.1067L8.90983 15.8479L8.39218 13.1734L6.18042 12.5224Z" fill="#F6851B" stroke="#F6851B" stroke-width="0.3125" stroke-linecap="round" stroke-linejoin="round"/>
<path d="M11.647 18.5695L11.6706 17.8401L11.4745 17.6675H8.51762L8.33723 17.8401L8.35291 18.5695L5.88232 17.4009L6.74507 18.1067L8.49409 19.3224H11.498L13.2549 18.1067L14.1176 17.4009L11.647 18.5695Z" fill="#C0AD9E" stroke="#C0AD9E" stroke-width="0.3125" stroke-linecap="round" stroke-linejoin="round"/>
<path d="M11.4588 16.1068L11.0824 15.8479H8.90983L8.53336 16.1068L8.33728 17.8401L8.51767 17.6675H11.4745L11.6706 17.8401L11.4588 16.1068Z" fill="#161616" stroke="#161616" stroke-width="0.3125" stroke-linecap="round" stroke-linejoin="round"/>
<path d="M19.3334 6.9538L20 3.7538L19.004 0.78125L11.4589 6.38125L14.3608 8.83615L18.4628 10.0362L19.3726 8.97733L18.9804 8.69498L19.6079 8.12243L19.1216 7.74596L19.7491 7.26753L19.3334 6.9538Z" fill="#763D16" stroke="#763D16" stroke-width="0.3125" stroke-linecap="round" stroke-linejoin="round"/>
<path d="M0 3.7538L0.666667 6.9538L0.243137 7.26753L0.870588 7.74596L0.392157 8.12243L1.01961 8.69498L0.627451 8.97733L1.52941 10.0362L5.63137 8.83615L8.53333 6.38125L0.988236 0.78125L0 3.7538Z" fill="#763D16" stroke="#763D16" stroke-width="0.3125" stroke-linecap="round" stroke-linejoin="round"/>
<path d="M18.4627 10.0361L14.3608 8.83614L15.6078 10.7106L13.749 14.3185L16.1961 14.2871H19.8431L18.4627 10.0361Z" fill="#F6851B" stroke="#F6851B" stroke-width="0.3125" stroke-linecap="round" stroke-linejoin="round"/>
<path d="M5.63134 8.83614L1.52938 10.0361L0.164673 14.2871H3.80389L6.2431 14.3185L4.39212 10.7106L5.63134 8.83614Z" fill="#F6851B" stroke="#F6851B" stroke-width="0.3125" stroke-linecap="round" stroke-linejoin="round"/>
<path d="M11.2001 10.9068L11.4589 6.38126L12.6511 3.15773H7.35693L8.5334 6.38126L8.80791 10.9068L8.90203 12.3342L8.90987 15.8479H11.0824L11.0981 12.3342L11.2001 10.9068Z" fill="#F6851B" stroke="#F6851B" stroke-width="0.3125" stroke-linecap="round" stroke-linejoin="round"/>
</g>
<defs>
<clipPath id="clip0_2217_11579">
<rect width="20" height="20" fill="white"/>
</clipPath>
</defs>
</svg>
