<svg width="28" height="28" viewBox="0 0 28 28" fill="none" xmlns="http://www.w3.org/2000/svg">
<path d="M13.9842 27.8148C13.6136 27.8148 13.2429 27.7192 12.9122 27.5286L2.79077 21.6845C2.12936 21.3031 1.71875 20.5916 1.71875 19.8281V8.14077C1.71875 7.37702 2.12967 6.66552 2.79107 6.28411L12.9122 0.440276C13.5736 0.0585547 14.3948 0.0582473 15.0565 0.440276L25.1777 6.2838C25.8388 6.66522 26.2497 7.37672 26.2497 8.14047V19.8278C26.2497 20.5916 25.8388 21.3031 25.1774 21.6845L15.0562 27.5283C14.7255 27.7192 14.3549 27.8148 13.9842 27.8148ZM13.9842 1.99728C13.9326 1.99728 13.881 2.01049 13.8345 2.03723L3.7128 7.88107C3.62029 7.93455 3.56281 8.03412 3.56281 8.14077V19.8281C3.56281 19.9348 3.62029 20.0344 3.71249 20.0875L13.8342 25.9317C13.9264 25.9845 14.0414 25.9852 14.1339 25.9317L24.2557 20.0878C24.3482 20.0344 24.4053 19.9351 24.4053 19.8281V8.14077C24.4053 8.03382 24.3479 7.93455 24.256 7.88137L14.1339 2.03723C14.0878 2.01049 14.0359 1.99728 13.9842 1.99728Z" fill="#A259FF"/>
<path d="M10.0263 18.1218C9.71311 18.1218 9.41407 17.9616 9.24288 17.6859L6.95686 14.003V17.1997C6.95686 17.709 6.54409 18.1218 6.03482 18.1218C5.52556 18.1218 5.11279 17.709 5.11279 17.1997V10.7689C5.11279 10.357 5.38602 9.99497 5.78188 9.88218C6.17897 9.77 6.60126 9.93289 6.81824 10.2826L9.10427 13.9655V10.7689C9.10427 10.2596 9.51703 9.84683 10.0263 9.84683C10.5356 9.84683 10.9483 10.2596 10.9483 10.7689V17.1997C10.9483 17.6116 10.6751 17.9736 10.2792 18.0864C10.1953 18.1104 10.1102 18.1218 10.0263 18.1218Z" fill="#A259FF"/>
<path d="M13.1347 18.1218C12.6254 18.1218 12.2126 17.709 12.2126 17.1997V10.7689C12.2126 10.2596 12.6254 9.84683 13.1347 9.84683H15.6921C16.2014 9.84683 16.6141 10.2596 16.6141 10.7689C16.6141 11.2781 16.2014 11.6909 15.6921 11.6909H14.0567V17.1997C14.0567 17.709 13.6439 18.1218 13.1347 18.1218Z" fill="#A259FF"/>
<path d="M15.6921 14.9063H13.1347C12.6254 14.9063 12.2126 14.4936 12.2126 13.9843C12.2126 13.475 12.6254 13.0623 13.1347 13.0623H15.6921C16.2014 13.0623 16.6141 13.475 16.6141 13.9843C16.6141 14.4936 16.2014 14.9063 15.6921 14.9063Z" fill="#A259FF"/>
<path d="M21.9336 11.6909H18.279C17.7697 11.6909 17.3569 11.2781 17.3569 10.7689C17.3569 10.2596 17.7697 9.84683 18.279 9.84683H21.9336C22.4429 9.84683 22.8556 10.2596 22.8556 10.7689C22.8556 11.2781 22.4429 11.6909 21.9336 11.6909Z" fill="#A259FF"/>
<path d="M20.1061 18.1218C19.5968 18.1218 19.1841 17.709 19.1841 17.1997V10.7689C19.1841 10.2596 19.5968 9.84683 20.1061 9.84683C20.6154 9.84683 21.0281 10.2596 21.0281 10.7689V17.1997C21.0281 17.709 20.6157 18.1218 20.1061 18.1218Z" fill="#A259FF"/>
</svg>
