<svg width="20" height="20" viewBox="0 0 32 33" fill="none" xmlns="http://www.w3.org/2000/svg">
<path d="M15.1875 27.3825H4.62503V4.63247H15.1875C15.636 4.63247 16 4.26844 16 3.81999C16 3.37154 15.636 3.00751 15.1875 3.00751H3.81248C3.36403 3.00751 3 3.37147 3 3.81999V28.195C3 28.6435 3.36403 29.0075 3.81248 29.0075H15.1875C15.636 29.0075 15.9999 28.6435 15.9999 28.195C16 27.7465 15.636 27.3825 15.1875 27.3825Z" fill="white"/>
<path d="M28.7737 15.4279L23.391 9.74764C23.086 9.42706 22.5922 9.42787 22.288 9.74764C21.983 10.0674 21.983 10.5868 22.288 10.9066L26.3445 15.1876H10.2801C9.84944 15.1876 9.5 15.5545 9.5 16.0074C9.5 16.4602 9.84951 16.8271 10.2801 16.8271H26.3445L22.288 21.1082C21.983 21.4287 21.983 21.9473 22.288 22.2671C22.593 22.5877 23.0868 22.5877 23.391 22.2671L28.7729 16.5868C29.074 16.2711 29.0771 15.7428 28.7737 15.4279Z" fill="white"/>
</svg>
